<svg xmlns="http://www.w3.org/2000/svg" viewBox="0 0 120 120"><defs><style>.cls-1{fill:#fff;}</style></defs><g id="Layer_2" data-name="Layer 2"><g id="Layer_1-2" data-name="Layer 1"><path class="cls-1" d="M120,120H0V0H120ZM69.92,94.27c.09.16.12.2.12.23,0,.36,0,.72,0,1.08,0,4.4.65,8.64,3.53,12.18,3.18,3.89,7.29,5.57,12.24,4.26,4.74-1.25,7.28-4.76,8.21-9.38,1.92-9.55,3.86-19.1,5.42-28.72a68.61,68.61,0,0,0-.21-24.58A1.74,1.74,0,0,1,99.71,48a10,10,0,0,0,3.61-10.19c-1-5.53-4.18-9.65-8.59-12.95a3.1,3.1,0,0,1-1.07-1.46C87.35,3.54,65.09-2.51,49.62,6.53,41.06,11.54,36.8,19.37,35.46,29c-.28,2-.57,4-.85,6A20,20,0,0,0,22,36.78a2.66,2.66,0,0,0-1.65,2,111.05,111.05,0,0,0-3.51,33.61A74.84,74.84,0,0,0,18,82.58c1.24,6.58,4.58,9.55,11.21,10.36,1.44.18,2.92.17,4.45.25.12,1.19.23,2.34.35,3.49.41,3.89.72,7.8,2.16,11.5a13.87,13.87,0,0,0,7.52,8.27c6.13,2.62,14.95.24,18.93-5.11a7.76,7.76,0,0,0,1.63-4.9c-.06-3.56,0-7.12,0-10.68V94.27Z"/><path d="M69.92,94.27H64.24v1.49c0,3.56,0,7.12,0,10.68a7.76,7.76,0,0,1-1.63,4.9c-4,5.35-12.8,7.73-18.93,5.11a13.87,13.87,0,0,1-7.52-8.27c-1.44-3.7-1.75-7.61-2.16-11.5-.12-1.15-.23-2.3-.35-3.49-1.53-.08-3-.07-4.45-.25-6.63-.81-10-3.78-11.21-10.36a74.84,74.84,0,0,1-1.16-10.23,111.05,111.05,0,0,1,3.51-33.61,2.66,2.66,0,0,1,1.65-2A20,20,0,0,1,34.61,35c.28-2,.57-4,.85-6,1.34-9.63,5.6-17.46,14.16-22.47,15.47-9,37.73-3,44,16.82a3.1,3.1,0,0,0,1.07,1.46c4.41,3.3,7.61,7.42,8.59,13A10,10,0,0,1,99.71,48a1.74,1.74,0,0,0-.49,1.39,68.61,68.61,0,0,1,.21,24.58c-1.56,9.62-3.5,19.17-5.42,28.72-.93,4.62-3.47,8.13-8.21,9.38-5,1.31-9.06-.37-12.24-4.26C70.68,104.22,70,100,70,95.58c0-.36,0-.72,0-1.08C70,94.47,70,94.43,69.92,94.27Zm14.44-74a13.46,13.46,0,0,0-3.91-5.69A22.08,22.08,0,0,0,67.14,9.26c-9.7-.78-20.76,3.93-25,15.75a49.51,49.51,0,0,0-2.57,12.77c-.66,7.93-1.3,15.86-1.56,23.81A191.44,191.44,0,0,0,39.76,98a22.51,22.51,0,0,0,2.64,8.53c3.57,5.82,10.63,6.19,14.73.75a3.18,3.18,0,0,0,.61-1.73c.15-3.32.23-6.64.29-10,0-2,0-4,0-6.14.84,0,1.35-.11,1.86-.08,2,.09,3.9.24,5.85.33,5.67.26,11.33.52,16.92-.81.78-.19,1.83-1,2.35.09s-.6,1.52-1.22,2.09a13.35,13.35,0,0,1-8.46,3.58c-.16,3.48,0,6.77,2.11,9.61a6.29,6.29,0,0,0,6.17,2.91c2.63-.35,4.6-2.29,5.22-5.39C90.63,92.85,92.48,84,94,75a48.34,48.34,0,0,0-.11-17.42c-.41-2-1.06-4-1.59-6-3.25.88-6.19,1.78-9.17,2.47-6.15,1.43-12.29,1.61-18.23-.85C58.37,50.56,54,45.86,52.76,38.78c-1.41-8.1,2.85-15,10.74-17.86A29.14,29.14,0,0,1,75.28,19.4C78.3,19.56,81.3,20,84.36,20.28ZM73.87,24.72c-1,0-2.08-.07-3.11,0a16,16,0,0,0-8.82,3,9.81,9.81,0,0,0-4,10.33c1.13,5.61,4.93,8.85,10.1,10.67a22.35,22.35,0,0,0,11.33.74A52,52,0,0,0,94.07,45c4.27-2.14,5.18-5.44,3-9.68a17.2,17.2,0,0,0-8.73-8A34.46,34.46,0,0,0,73.87,24.72ZM34,40.39a11.82,11.82,0,0,0-7.66.29,2,2,0,0,0-1.49,1.59A101,101,0,0,0,22.06,70c.13,3.83.51,7.65,1,11.46a6.42,6.42,0,0,0,3.6,5.45,13.28,13.28,0,0,0,6.57.89A292.89,292.89,0,0,1,34,40.39Z"/><path class="cls-1" d="M84.36,20.28c-3.06-.31-6.06-.72-9.08-.88A29.14,29.14,0,0,0,63.5,20.92c-7.89,2.91-12.15,9.76-10.74,17.86C54,45.86,58.37,50.56,64.89,53.25c5.94,2.46,12.08,2.28,18.23.85,3-.69,5.92-1.59,9.17-2.47.53,1.95,1.18,3.95,1.59,6A48.34,48.34,0,0,1,94,75c-1.51,8.93-3.36,17.81-5.15,26.69-.62,3.1-2.59,5-5.22,5.39a6.29,6.29,0,0,1-6.17-2.91c-2.06-2.84-2.27-6.13-2.11-9.61A13.35,13.35,0,0,0,83.8,91c.62-.57,1.7-1.13,1.22-2.09s-1.57-.28-2.35-.09c-5.59,1.33-11.25,1.07-16.92.81-2-.09-3.9-.24-5.85-.33-.51,0-1,0-1.86.08,0,2.1,0,4.12,0,6.14-.06,3.32-.14,6.64-.29,10a3.18,3.18,0,0,1-.61,1.73C53,112.67,46,112.3,42.4,106.48A22.51,22.51,0,0,1,39.76,98,191.44,191.44,0,0,1,38,61.59c.26-8,.9-15.88,1.56-23.81A49.51,49.51,0,0,1,42.12,25c4.26-11.82,15.32-16.53,25-15.75a22.08,22.08,0,0,1,13.31,5.33A13.46,13.46,0,0,1,84.36,20.28Z"/><path class="cls-1" d="M73.87,24.72a34.46,34.46,0,0,1,14.46,2.64,17.2,17.2,0,0,1,8.73,8c2.19,4.24,1.28,7.54-3,9.68a52,52,0,0,1-14.71,4.41A22.35,22.35,0,0,1,68,48.71c-5.17-1.82-9-5.06-10.1-10.67a9.81,9.81,0,0,1,4-10.33,16,16,0,0,1,8.82-3C71.79,24.65,72.83,24.72,73.87,24.72Z"/><path class="cls-1" d="M34,40.39a292.89,292.89,0,0,0-.8,47.39,13.28,13.28,0,0,1-6.57-.89A6.42,6.42,0,0,1,23,81.44c-.46-3.81-.84-7.63-1-11.46a101,101,0,0,1,2.79-27.71,2,2,0,0,1,1.49-1.59A11.82,11.82,0,0,1,34,40.39Z"/></g></g></svg>